<svg width="17" height="25" viewBox="0 0 17 25" fill="none" xmlns="http://www.w3.org/2000/svg">
<path d="M16.8 24.5H0.474391V21.2805L8.17916 13.1179C9.237 11.9688 10.0167 10.9661 10.5184 10.1098C11.031 9.25339 11.2872 8.44038 11.2872 7.67073C11.2872 6.61924 11.0201 5.79539 10.4857 5.19919C9.95131 4.59214 9.18793 4.28862 8.19552 4.28862C7.12678 4.28862 6.2816 4.65718 5.65998 5.39431C5.04927 6.1206 4.74391 7.07995 4.74391 8.27236H0C0 6.83062 0.343525 5.51355 1.03057 4.32114C1.72853 3.12873 2.71003 2.19648 3.97507 1.52439C5.24012 0.841463 6.6742 0.5 8.27731 0.5C10.7311 0.5 12.6341 1.08537 13.9864 2.2561C15.3496 3.42683 16.0312 5.07995 16.0312 7.21545C16.0312 8.38618 15.7258 9.57859 15.1151 10.7927C14.5044 12.0068 13.4574 13.4214 11.9743 15.0366L6.55969 20.7114H16.8V24.5Z" fill="#EC1630"/>
</svg>
